<svg width="54" height="54" viewBox="0 0 54 54" fill="none" xmlns="http://www.w3.org/2000/svg">
<path d="M35.1848 37.1283C30.984 40.5379 26.2272 40.9059 21.6272 41.2612C17.417 41.5868 13.4399 41.8943 10.1883 44.5334C9.7582 44.8825 9.12759 44.8183 8.77927 44.3891C8.43094 43.9599 8.49782 43.3296 8.92794 42.9805C12.6667 39.946 17.1468 39.6 21.4787 39.2649C25.9693 38.9179 30.2104 38.5899 33.9245 35.5754C37.1761 32.9363 38.2951 29.1076 39.4799 25.0544C40.7739 20.6259 42.1127 16.0465 46.3135 12.637C46.7436 12.2879 47.3742 12.3521 47.7226 12.7812C48.0709 13.2104 48.004 13.8407 47.5739 14.1898C43.8598 17.2043 42.6663 21.2872 41.4029 25.6104C40.1839 29.7807 38.9236 34.0938 35.1848 37.1283Z" fill="black"/>
<path d="M44.0033 47.9522C32.4442 57.3339 15.4056 55.5619 6.02429 44.0033C-3.35704 32.4448 -1.58598 15.4061 9.97311 6.02431C21.5322 -3.35749 38.5708 -1.5854 47.9521 9.97312C57.3335 21.5316 55.5624 38.5704 44.0033 47.9522ZM13.4144 10.2643C4.19284 17.7489 2.78026 31.3407 10.2645 40.5618C17.7487 49.783 31.3404 51.1968 40.562 43.7122C49.7836 36.2276 51.1962 22.6358 43.7119 13.4146C36.2277 4.19348 22.636 2.7797 13.4144 10.2643Z" fill="black"/>
<path d="M44.744 11.0647C41.0097 14.0956 36.5331 14.4388 32.2046 14.7711C27.7174 15.1153 23.4796 15.4407 19.77 18.4515C16.5223 21.0874 15.4064 24.9137 14.2248 28.9642C12.9344 33.3898 11.5993 37.9662 7.40353 41.3716C6.97393 41.7203 6.34375 41.6558 5.99542 41.2266C5.64709 40.7974 5.71355 40.1674 6.14316 39.8188C9.85274 36.8079 11.043 32.7277 12.3029 28.4073C13.5186 24.2398 14.7754 19.9295 18.5096 16.8986C22.7054 13.4931 27.4585 13.1281 32.055 12.7757C36.2619 12.4527 40.2359 12.1478 43.4836 9.51184C43.9132 9.16315 44.5434 9.22772 44.8917 9.65688C45.2401 10.086 45.1736 10.716 44.744 11.0647Z" fill="black"/>
<path d="M4.27554 16.4076L24.5949 1.26044L30.2396 8.83267L9.9203 23.9798L4.27554 16.4076Z" fill="black"/>
<path d="M2.02975 29.9205L7.77497 15.1997L16.5733 18.6335L10.8281 33.3543L2.02975 29.9205Z" fill="black"/>
<path d="M17.0298 40.9855L32.7307 39.1997L33.798 48.5839L18.0971 50.3696L17.0298 40.9855Z" fill="black"/>
<path d="M26.0298 42.8107L46.1277 28.1997L51.6813 35.839L31.5834 50.4499L26.0298 42.8107Z" fill="black"/>
<path d="M2.02975 36.9205L7.77497 22.1997L14.214 24.7127L8.46875 39.4335L2.02975 36.9205Z" fill="black"/>
<path d="M27.3358 3.19982L42.8534 6.18578L41.5473 12.9733L26.0298 9.9873L27.3358 3.19982Z" fill="black"/>
<path d="M6.02975 36.4195L11.1891 23.1999L15.0298 24.6988L9.87042 37.9185L6.02975 36.4195Z" fill="black"/>
<path d="M12.2538 41.1998L26.4236 41.971L26.1263 47.4338L11.9565 46.6626L12.2538 41.1998Z" fill="black"/>
<path d="M37.0298 36.1847L48.9497 22.1998L53.1133 25.7486L41.1934 39.7336L37.0298 36.1847Z" fill="black"/>
<path d="M36.0298 34.1847L47.9497 20.1998L52.1133 23.7487L40.1934 37.7336L36.0298 34.1847Z" fill="black"/>
<path d="M41.0298 23.0941L46.3763 13.1998L51.1894 15.8007L45.8429 25.695L41.0298 23.0941Z" fill="black"/>
<path d="M38.6427 30.4093L42.1597 22.1998L45.5954 23.6717L42.0783 31.8812L38.6427 30.4093Z" fill="black"/>
<path d="M39.8661 25.2191L41.1597 22.1997L43.2223 23.0833L41.9287 26.1027L39.8661 25.2191Z" fill="black"/>
<path d="M28.6242 41.9025L28.0298 39.0578L32.1356 38.1997L32.73 41.0444L28.6242 41.9025Z" fill="black"/>
<path d="M46.529 26.0399L48.9497 23.1999L53.1134 26.7487L50.6927 29.5888L46.529 26.0399Z" fill="black"/>
<path d="M15.1767 40.1998L19.3739 40.4283L19.2269 43.1277L15.0297 42.8993L15.1767 40.1998Z" fill="black"/>
<path d="M19.8357 11.2425L33.8968 9.32869L34.4528 13.4138L20.3917 15.3277L19.8357 11.2425Z" fill="black"/>
<path d="M26.0298 11.1136L40.0909 9.19978L40.6469 13.2849L26.5858 15.1988L26.0298 11.1136Z" fill="black"/>
</svg>
